<?xml version="1.0" encoding="UTF-8"?>
<!DOCTYPE svg PUBLIC "-//W3C//DTD SVG 1.1//EN" "http://www.w3.org/Graphics/SVG/1.1/DTD/svg11.dtd">
<svg xmlns="http://www.w3.org/2000/svg" version="1.1" width="200px" height="200px" style="shape-rendering:geometricPrecision; text-rendering:geometricPrecision; image-rendering:optimizeQuality; fill-rule:evenodd; clip-rule:evenodd" xmlns:xlink="http://www.w3.org/1999/xlink">
<g><path style="opacity:1" fill="#fefefe" d="M -0.5,-0.5 C 66.1667,-0.5 132.833,-0.5 199.5,-0.5C 199.5,66.1667 199.5,132.833 199.5,199.5C 132.833,199.5 66.1667,199.5 -0.5,199.5C -0.5,132.833 -0.5,66.1667 -0.5,-0.5 Z"/></g>
<g><path style="opacity:1" fill="#7b7d93" d="M 18.5,9.5 C 22.6463,8.35303 26.9796,8.18636 31.5,9C 30.944,9.38258 30.6107,9.88258 30.5,10.5C 30.1667,10.5 29.8333,10.5 29.5,10.5C 26.0381,9.51836 22.3714,9.18503 18.5,9.5 Z"/></g>
<g><path style="opacity:1" fill="#262a60" d="M 18.5,9.5 C 22.3714,9.18503 26.0381,9.51836 29.5,10.5C 25.8536,12.8171 22.5203,15.4838 19.5,18.5C 17.7748,18.1575 17.2748,17.1575 18,15.5C 19.586,14.624 21.086,13.624 22.5,12.5C 21.6667,12.1667 20.8333,11.8333 20,11.5C 17.7739,12.0329 15.6073,12.6996 13.5,13.5C 14.9448,11.9373 16.6115,10.604 18.5,9.5 Z"/></g>
<g><path style="opacity:1" fill="#187aba" d="M 35.5,9.5 C 35.6107,10.1174 35.944,10.6174 36.5,11C 42.098,11.8841 47.598,13.0507 53,14.5C 54.7408,22.9098 51.5741,26.5765 43.5,25.5C 44.9397,23.6121 46.6064,21.9454 48.5,20.5C 47.9953,19.0815 46.9953,18.4148 45.5,18.5C 45.9175,17.7784 46.5842,17.2784 47.5,17C 45.765,16.3486 44.0983,16.5153 42.5,17.5C 41.062,19.7118 39.3954,21.7118 37.5,23.5C 37.9569,24.2975 38.6236,24.6309 39.5,24.5C 38.2347,25.4793 36.9014,26.4793 35.5,27.5C 34.5046,21.8722 34.1712,16.2055 34.5,10.5C 34.5,9.83333 34.8333,9.5 35.5,9.5 Z"/></g>
<g><path style="opacity:1" fill="#2862a2" d="M 56.5,25.5 C 54.9382,25.7329 53.6049,26.3995 52.5,27.5C 48.2984,27.8168 44.2984,27.4834 40.5,26.5C 41.391,25.8902 42.391,25.5569 43.5,25.5C 51.5741,26.5765 54.7408,22.9098 53,14.5C 47.598,13.0507 42.098,11.8841 36.5,11C 35.944,10.6174 35.6107,10.1174 35.5,9.5C 40.9846,8.3483 46.6513,8.18163 52.5,9C 55.3362,11.0074 58.0029,13.1741 60.5,15.5C 56.5,17.5 56.5,19.5 60.5,21.5C 59.1335,22.84 57.8001,24.1733 56.5,25.5 Z"/></g>
<g><path style="opacity:1" fill="#d4d7e5" d="M 29.5,10.5 C 29.8333,10.5 30.1667,10.5 30.5,10.5C 30.5,10.8333 30.5,11.1667 30.5,11.5C 28.7656,14.2003 26.4323,16.2003 23.5,17.5C 22.9702,22.1106 21.6368,22.444 19.5,18.5C 22.5203,15.4838 25.8536,12.8171 29.5,10.5 Z"/></g>
<g><path style="opacity:1" fill="#1b5798" d="M 45.5,18.5 C 44.4378,21.378 42.4378,23.378 39.5,24.5C 38.6236,24.6309 37.9569,24.2975 37.5,23.5C 39.3954,21.7118 41.062,19.7118 42.5,17.5C 44.0983,16.5153 45.765,16.3486 47.5,17C 46.5842,17.2784 45.9175,17.7784 45.5,18.5 Z"/></g>
<g><path style="opacity:1" fill="#d2d2d2" d="M 148.5,16.5 C 151.649,16.2114 154.649,16.7114 157.5,18C 159.118,20.7997 158.285,22.2997 155,22.5C 153.106,22.4606 152.106,21.7939 152,20.5C 150.607,21.6151 149.107,22.1151 147.5,22C 146.156,19.8564 146.49,18.0231 148.5,16.5 Z"/></g>
<g><path style="opacity:1" fill="#819cb5" d="M 165.5,16.5 C 170.201,18.489 175.035,18.489 180,16.5C 182.172,17.9118 184.338,18.4118 186.5,18C 187.833,19 187.833,20 186.5,21C 184.5,21.1667 182.5,21.3333 180.5,21.5C 178.036,21.4101 175.87,20.7435 174,19.5C 173.667,20.1667 173.333,20.8333 173,21.5C 171.732,21.3842 170.398,21.0509 169,20.5C 167.513,21.2529 167.346,22.0862 168.5,23C 171.909,22.7655 175.242,22.9322 178.5,23.5C 178.5,24.5 178.5,25.5 178.5,26.5C 176.234,26.8588 174.401,26.1922 173,24.5C 171.271,27.0789 169.438,27.0789 167.5,24.5C 166.833,25.1667 166.167,25.8333 165.5,26.5C 165.088,23.0385 165.088,19.7052 165.5,16.5 Z"/></g>
<g><path style="opacity:1" fill="#303268" d="M 30.5,11.5 C 30.8333,11.5 31.1667,11.5 31.5,11.5C 32.4872,16.3054 32.8205,21.3054 32.5,26.5C 32.3893,27.1174 32.056,27.6174 31.5,28C 26.5111,28.4993 21.5111,28.6659 16.5,28.5C 15.8333,28.5 15.5,28.1667 15.5,27.5C 15.8417,26.6618 16.5084,26.3284 17.5,26.5C 21.5,26.5 25.5,26.5 29.5,26.5C 29.8204,23.1016 29.487,19.7683 28.5,16.5C 27.1667,17.1667 25.8333,17.8333 24.5,18.5C 23.8933,18.3764 23.56,18.0431 23.5,17.5C 26.4323,16.2003 28.7656,14.2003 30.5,11.5 Z"/></g>
<g><path style="opacity:1" fill="#2e568d" d="M 13.5,13.5 C 12.6036,16.127 12.7702,18.7936 14,21.5C 15.8524,22.6955 17.019,24.3621 17.5,26.5C 16.5084,26.3284 15.8417,26.6618 15.5,27.5C 12.321,25.1542 9.65437,22.3209 7.5,19C 8.70702,16.2926 10.707,14.4593 13.5,13.5 Z"/></g>
<g><path style="opacity:1" fill="#73718c" d="M 31.5,11.5 C 31.8417,10.6618 32.5084,10.3284 33.5,10.5C 33.8214,16.0262 33.4881,21.3595 32.5,26.5C 32.8205,21.3054 32.4872,16.3054 31.5,11.5 Z"/></g>
<g><path style="opacity:1" fill="#1e438c" d="M 19.5,18.5 C 21.6368,22.444 22.9702,22.1106 23.5,17.5C 23.56,18.0431 23.8933,18.3764 24.5,18.5C 25.8333,17.8333 27.1667,17.1667 28.5,16.5C 29.487,19.7683 29.8204,23.1016 29.5,26.5C 25.5,26.5 21.5,26.5 17.5,26.5C 17.019,24.3621 15.8524,22.6955 14,21.5C 12.7702,18.7936 12.6036,16.127 13.5,13.5C 15.6073,12.6996 17.7739,12.0329 20,11.5C 20.8333,11.8333 21.6667,12.1667 22.5,12.5C 21.086,13.624 19.586,14.624 18,15.5C 17.2748,17.1575 17.7748,18.1575 19.5,18.5 Z"/></g>
<g><path style="opacity:1" fill="#9bb2c5" d="M 145.5,23.5 C 150.5,23.5 155.5,23.5 160.5,23.5C 160.5,24.5 160.5,25.5 160.5,26.5C 155.046,26.1744 150.046,26.1744 145.5,26.5C 144.438,25.5754 144.438,24.5754 145.5,23.5 Z"/></g>
<g><path style="opacity:1" fill="#e4e9ee" d="M 33.5,10.5 C 33.8333,10.5 34.1667,10.5 34.5,10.5C 34.1712,16.2055 34.5046,21.8722 35.5,27.5C 36.9014,26.4793 38.2347,25.4793 39.5,24.5C 42.4378,23.378 44.4378,21.378 45.5,18.5C 46.9953,18.4148 47.9953,19.0815 48.5,20.5C 46.6064,21.9454 44.9397,23.6121 43.5,25.5C 42.391,25.5569 41.391,25.8902 40.5,26.5C 39.9569,26.56 39.6236,26.8933 39.5,27.5C 43.9838,28.8111 48.3171,28.8111 52.5,27.5C 53.6049,26.3995 54.9382,25.7329 56.5,25.5C 55.5,27.1667 54.1667,28.5 52.5,29.5C 50.8333,29.5 49.1667,29.5 47.5,29.5C 47.2627,30.791 47.596,31.791 48.5,32.5C 47.791,33.404 46.791,33.7373 45.5,33.5C 46.4124,32.2618 46.5791,30.9285 46,29.5C 45.3333,32.1667 44.6667,32.1667 44,29.5C 42.4815,29.0574 41.3148,29.7241 40.5,31.5C 41.9492,32.1719 43.2825,32.8386 44.5,33.5C 41.5,33.5 38.5,33.5 35.5,33.5C 36.5676,32.5655 37.901,32.2322 39.5,32.5C 39.5,31.5 39.5,30.5 39.5,29.5C 37.549,29.2267 36.049,29.8934 35,31.5C 33.1303,30.2565 30.9637,29.5899 28.5,29.5C 26.0363,29.5899 23.8697,30.2565 22,31.5C 20.4157,30.1387 18.5824,29.472 16.5,29.5C 16.5,29.1667 16.5,28.8333 16.5,28.5C 21.5111,28.6659 26.5111,28.4993 31.5,28C 32.056,27.6174 32.3893,27.1174 32.5,26.5C 33.4881,21.3595 33.8214,16.0262 33.5,10.5 Z"/></g>
<g><path style="opacity:1" fill="#778aa6" d="M 40.5,26.5 C 44.2984,27.4834 48.2984,27.8168 52.5,27.5C 48.3171,28.8111 43.9838,28.8111 39.5,27.5C 39.6236,26.8933 39.9569,26.56 40.5,26.5 Z"/></g>
<g><path style="opacity:1" fill="#95969b" d="M 16.5,29.5 C 18.5824,29.472 20.4157,30.1387 22,31.5C 23.8697,30.2565 26.0363,29.5899 28.5,29.5C 30.9637,29.5899 33.1303,30.2565 35,31.5C 36.049,29.8934 37.549,29.2267 39.5,29.5C 39.5,30.5 39.5,31.5 39.5,32.5C 37.901,32.2322 36.5676,32.5655 35.5,33.5C 33.8868,33.0557 32.7202,32.0557 32,30.5C 30.3023,31.733 28.3023,32.3996 26,32.5C 23.3244,32.0132 20.8244,32.0132 18.5,32.5C 17.4593,30.0087 16.6259,30.0087 16,32.5C 15.2599,31.2506 15.4265,30.2506 16.5,29.5 Z"/></g>
<g><path style="opacity:1" fill="#96979b" d="M 45.5,33.5 C 45.1667,33.5 44.8333,33.5 44.5,33.5C 43.2825,32.8386 41.9492,32.1719 40.5,31.5C 41.3148,29.7241 42.4815,29.0574 44,29.5C 44.6667,32.1667 45.3333,32.1667 46,29.5C 46.5791,30.9285 46.4124,32.2618 45.5,33.5 Z"/></g>
<g><path style="opacity:1" fill="#a6a7aa" d="M 52.5,29.5 C 52.7332,32.9536 51.3999,33.9536 48.5,32.5C 47.596,31.791 47.2627,30.791 47.5,29.5C 49.1667,29.5 50.8333,29.5 52.5,29.5 Z"/></g>
<g><path style="opacity:1" fill="#690f14" d="M 113.5,74.5 C 113.918,75.2216 114.584,75.7216 115.5,76C 113.75,77.3186 111.75,77.8186 109.5,77.5C 109.5,78.5 109.5,79.5 109.5,80.5C 115.509,80.3338 121.509,80.5005 127.5,81C 123.249,82.1946 118.915,82.6946 114.5,82.5C 111.518,81.8351 108.352,81.5018 105,81.5C 99.9104,81.3437 95.0771,82.0103 90.5,83.5C 84.1292,83.4882 77.7959,83.9882 71.5,85C 68.146,87.3437 64.4794,89.177 60.5,90.5C 60.7376,88.5956 61.7376,87.2623 63.5,86.5C 67.728,83.5549 72.3947,81.3882 77.5,80C 83.9192,79.5803 89.9192,78.4136 95.5,76.5C 101.41,75.18 107.41,74.5133 113.5,74.5 Z"/></g>
<g><path style="opacity:1" fill="#7d242b" d="M 95.5,76.5 C 89.9192,78.4136 83.9192,79.5803 77.5,80C 72.3947,81.3882 67.728,83.5549 63.5,86.5C 69.9151,77.4646 78.4151,74.4646 89,77.5C 91.0989,76.7135 93.2655,76.3801 95.5,76.5 Z"/></g>
<g><path style="opacity:1" fill="#ac374b" d="M 114.5,82.5 C 105.961,82.0371 97.6278,83.0371 89.5,85.5C 89.8333,84.8333 90.1667,84.1667 90.5,83.5C 95.0771,82.0103 99.9104,81.3437 105,81.5C 108.352,81.5018 111.518,81.8351 114.5,82.5 Z"/></g>
<g><path style="opacity:1" fill="#f7f6f9" d="M 114.5,84.5 C 114.634,86.2915 114.301,87.9582 113.5,89.5C 106.833,89.5 100.167,89.5 93.5,89.5C 93.5,88.5 93.5,87.5 93.5,86.5C 100.262,84.8469 107.262,84.1802 114.5,84.5 Z"/></g>
<g><path style="opacity:1" fill="#403444" d="M 114.5,83.5 C 117.385,83.1936 120.052,83.5269 122.5,84.5C 120.031,85.9082 117.697,87.5749 115.5,89.5C 114.833,89.5 114.167,89.5 113.5,89.5C 114.301,87.9582 114.634,86.2915 114.5,84.5C 114.5,84.1667 114.5,83.8333 114.5,83.5 Z"/></g>
<g><path style="opacity:1" fill="#420b0c" d="M 113.5,74.5 C 130.484,73.3661 147.151,75.0328 163.5,79.5C 163.859,81.371 164.859,82.871 166.5,84C 164.866,84.4935 163.199,84.6602 161.5,84.5C 161.154,89.216 160.487,93.8827 159.5,98.5C 157.771,101.753 156.104,104.419 154.5,106.5C 154.5,104.833 154.5,103.167 154.5,101.5C 153.448,101.649 152.448,101.483 151.5,101C 147.932,94.5967 142.932,89.7634 136.5,86.5C 132.285,84.5636 127.619,83.8969 122.5,84.5C 120.052,83.5269 117.385,83.1936 114.5,83.5C 114.5,83.1667 114.5,82.8333 114.5,82.5C 118.915,82.6946 123.249,82.1946 127.5,81C 121.509,80.5005 115.509,80.3338 109.5,80.5C 109.5,79.5 109.5,78.5 109.5,77.5C 111.75,77.8186 113.75,77.3186 115.5,76C 114.584,75.7216 113.918,75.2216 113.5,74.5 Z"/></g>
<g><path style="opacity:1" fill="#dea0b5" d="M 114.5,82.5 C 114.5,82.8333 114.5,83.1667 114.5,83.5C 114.5,83.8333 114.5,84.1667 114.5,84.5C 107.262,84.1802 100.262,84.8469 93.5,86.5C 92.8333,86.5 92.1667,86.5 91.5,86.5C 89.8828,87.038 88.2161,87.3713 86.5,87.5C 87.1667,86.8333 87.8333,86.1667 88.5,85.5C 88.8333,85.5 89.1667,85.5 89.5,85.5C 97.6278,83.0371 105.961,82.0371 114.5,82.5 Z"/></g>
<g><path style="opacity:1" fill="#1a141a" d="M 122.5,84.5 C 127.619,83.8969 132.285,84.5636 136.5,86.5C 136.433,87.9587 136.766,89.2921 137.5,90.5C 130.201,89.6502 122.868,89.3169 115.5,89.5C 117.697,87.5749 120.031,85.9082 122.5,84.5 Z"/></g>
<g><path style="opacity:1" fill="#571e1d" d="M 163.5,79.5 C 165.679,79.84 167.512,80.84 169,82.5C 169.667,86.8333 169.667,91.1667 169,95.5C 165.715,100.454 162.048,105.12 158,109.5C 156.968,111.994 155.802,114.328 154.5,116.5C 154.971,111.89 156.804,107.89 160,104.5C 160.789,102.288 160.622,100.288 159.5,98.5C 160.487,93.8827 161.154,89.216 161.5,84.5C 163.199,84.6602 164.866,84.4935 166.5,84C 164.859,82.871 163.859,81.371 163.5,79.5 Z"/></g>
<g><path style="opacity:1" fill="#520c18" d="M 113.5,89.5 C 114.167,89.5 114.833,89.5 115.5,89.5C 122.868,89.3169 130.201,89.6502 137.5,90.5C 138.167,91.5 138.833,92.5 139.5,93.5C 136.984,93.2447 134.65,92.4114 132.5,91C 129.518,90.502 126.518,90.3354 123.5,90.5C 120.5,90.5 117.5,90.5 114.5,90.5C 114.35,93.4587 115.35,95.9587 117.5,98C 115.532,99.4615 114.198,101.295 113.5,103.5C 113.5,98.8333 113.5,94.1667 113.5,89.5 Z"/></g>
<g><path style="opacity:1" fill="#b47e87" d="M 88.5,85.5 C 87.8333,86.1667 87.1667,86.8333 86.5,87.5C 80.7326,88.0972 75.0659,89.2639 69.5,91C 65.9517,93.047 63.285,95.8803 61.5,99.5C 60.8333,99.8333 60.1667,100.167 59.5,100.5C 60.075,98.5887 61.075,96.922 62.5,95.5C 64.3355,92.8324 66.6688,90.6657 69.5,89C 75.6345,86.7554 81.9678,85.5887 88.5,85.5 Z"/></g>
<g><path style="opacity:1" fill="#d3cad4" d="M 91.5,86.5 C 91.5,87.8333 91.5,89.1667 91.5,90.5C 85.4189,90.7259 79.4189,91.5592 73.5,93C 70.7713,93.5661 68.7713,95.0661 67.5,97.5C 65.1097,98.8908 63.4431,100.891 62.5,103.5C 61.5655,102.432 61.2322,101.099 61.5,99.5C 63.285,95.8803 65.9517,93.047 69.5,91C 75.0659,89.2639 80.7326,88.0972 86.5,87.5C 88.2161,87.3713 89.8828,87.038 91.5,86.5 Z"/></g>
<g><path style="opacity:1" fill="#931b24" d="M 90.5,83.5 C 90.1667,84.1667 89.8333,84.8333 89.5,85.5C 89.1667,85.5 88.8333,85.5 88.5,85.5C 81.9678,85.5887 75.6345,86.7554 69.5,89C 66.6688,90.6657 64.3355,92.8324 62.5,95.5C 61.325,95.719 60.325,95.3857 59.5,94.5C 60.2458,93.2638 60.5792,91.9305 60.5,90.5C 64.4794,89.177 68.146,87.3437 71.5,85C 77.7959,83.9882 84.1292,83.4882 90.5,83.5 Z"/></g>
<g><path style="opacity:1" fill="#653d39" d="M 136.5,86.5 C 142.932,89.7634 147.932,94.5967 151.5,101C 152.448,101.483 153.448,101.649 154.5,101.5C 154.5,103.167 154.5,104.833 154.5,106.5C 152.98,108.588 151.98,110.922 151.5,113.5C 151.662,111.473 151.495,109.473 151,107.5C 150.057,110.251 149.224,112.917 148.5,115.5C 148.566,111.862 148.233,108.195 147.5,104.5C 146.53,99.5453 143.863,95.8786 139.5,93.5C 138.833,92.5 138.167,91.5 137.5,90.5C 136.766,89.2921 136.433,87.9587 136.5,86.5 Z"/></g>
<g><path style="opacity:1" fill="#c7cce8" d="M 91.5,86.5 C 92.1667,86.5 92.8333,86.5 93.5,86.5C 93.5,87.5 93.5,88.5 93.5,89.5C 100.167,89.5 106.833,89.5 113.5,89.5C 113.5,94.1667 113.5,98.8333 113.5,103.5C 113.737,104.791 113.404,105.791 112.5,106.5C 111.855,105.188 110.855,104.188 109.5,103.5C 107.876,105.441 105.876,106.774 103.5,107.5C 102.274,107.48 101.274,107.147 100.5,106.5C 98.8545,104.188 96.8545,102.188 94.5,100.5C 93.5159,97.5719 93.1826,94.5719 93.5,91.5C 93.1583,90.6618 92.4916,90.3284 91.5,90.5C 91.5,89.1667 91.5,87.8333 91.5,86.5 Z"/></g>
<g><path style="opacity:1" fill="#7b0e17" d="M 123.5,90.5 C 126.518,90.3354 129.518,90.502 132.5,91C 134.65,92.4114 136.984,93.2447 139.5,93.5C 143.863,95.8786 146.53,99.5453 147.5,104.5C 147.468,109.391 146.801,114.057 145.5,118.5C 145.666,114.154 145.499,109.821 145,105.5C 144.333,110.833 143.667,110.833 143,105.5C 142.333,112.167 141.667,112.167 141,105.5C 140.667,106.5 140.333,107.5 140,108.5C 138.599,106.808 136.766,106.141 134.5,106.5C 135.287,104.896 136.62,104.229 138.5,104.5C 137.647,102.403 137.647,100.403 138.5,98.5C 138.456,95.59 137.29,94.59 135,95.5C 131.549,92.8073 127.715,91.1407 123.5,90.5 Z"/></g>
<g><path style="opacity:1" fill="#5a3949" d="M 91.5,90.5 C 92.4916,90.3284 93.1583,90.6618 93.5,91.5C 92.5139,95.97 92.1805,100.637 92.5,105.5C 91.5,105.5 90.5,105.5 89.5,105.5C 89.5,107.167 89.5,108.833 89.5,110.5C 87.6921,109.082 87.0254,107.082 87.5,104.5C 85.1667,104.5 82.8333,104.5 80.5,104.5C 80.3379,102.473 80.5045,100.473 81,98.5C 82.3561,97.6198 83.8561,97.2865 85.5,97.5C 85.4028,101.692 87.2361,103.025 91,101.5C 91.765,99.9343 91.5983,98.6009 90.5,97.5C 90.6309,96.6236 90.2975,95.9569 89.5,95.5C 88.5713,96.6888 88.238,98.0222 88.5,99.5C 87.7656,98.1225 87.0989,96.6225 86.5,95C 87.1667,94.6667 87.8333,94.3333 88.5,94C 81.0433,92.8097 74.0433,93.9764 67.5,97.5C 68.7713,95.0661 70.7713,93.5661 73.5,93C 79.4189,91.5592 85.4189,90.7259 91.5,90.5 Z"/></g>
<g><path style="opacity:1" fill="#9d90a9" d="M 90.5,97.5 C 90.719,98.675 90.3857,99.675 89.5,100.5C 88.8933,100.376 88.56,100.043 88.5,99.5C 88.238,98.0222 88.5713,96.6888 89.5,95.5C 90.2975,95.9569 90.6309,96.6236 90.5,97.5 Z"/></g>
<g><path style="opacity:1" fill="#b1b4d2" d="M 93.5,91.5 C 93.1826,94.5719 93.5159,97.5719 94.5,100.5C 96.8545,102.188 98.8545,104.188 100.5,106.5C 97.6333,106.369 95.9666,107.703 95.5,110.5C 95.3677,113.57 95.701,116.57 96.5,119.5C 96.7475,121.858 96.0808,123.858 94.5,125.5C 93.4138,125.38 92.7472,124.713 92.5,123.5C 91.817,119.054 90.817,114.721 89.5,110.5C 89.5,108.833 89.5,107.167 89.5,105.5C 90.5,105.5 91.5,105.5 92.5,105.5C 92.1805,100.637 92.5139,95.97 93.5,91.5 Z"/></g>
<g><path style="opacity:1" fill="#5a2334" d="M 112.5,106.5 C 109.5,107.167 106.5,107.833 103.5,108.5C 101.955,109.23 101.122,110.563 101,112.5C 99.4157,111.139 97.5824,110.472 95.5,110.5C 95.9666,107.703 97.6333,106.369 100.5,106.5C 101.274,107.147 102.274,107.48 103.5,107.5C 105.876,106.774 107.876,105.441 109.5,103.5C 110.855,104.188 111.855,105.188 112.5,106.5 Z"/></g>
<g><path style="opacity:1" fill="#a4222f" d="M 145.5,118.5 C 145.167,119.833 144.833,121.167 144.5,122.5C 143.259,124.931 142.092,124.931 141,122.5C 140.667,123.5 140.333,124.5 140,125.5C 139.536,124.906 139.369,124.239 139.5,123.5C 142.034,116.526 139.7,112.193 132.5,110.5C 131.482,111.193 130.482,111.859 129.5,112.5C 130.038,110.883 130.371,109.216 130.5,107.5C 132.099,107.768 133.432,107.434 134.5,106.5C 136.766,106.141 138.599,106.808 140,108.5C 140.333,107.5 140.667,106.5 141,105.5C 141.667,112.167 142.333,112.167 143,105.5C 143.667,110.833 144.333,110.833 145,105.5C 145.499,109.821 145.666,114.154 145.5,118.5 Z"/></g>
<g><path style="opacity:1" fill="#8a0915" d="M 123.5,90.5 C 127.715,91.1407 131.549,92.8073 135,95.5C 137.29,94.59 138.456,95.59 138.5,98.5C 137.647,100.403 137.647,102.403 138.5,104.5C 136.62,104.229 135.287,104.896 134.5,106.5C 133.432,107.434 132.099,107.768 130.5,107.5C 130.371,109.216 130.038,110.883 129.5,112.5C 128.781,114.764 128.448,117.097 128.5,119.5C 123.5,119.5 118.5,119.5 113.5,119.5C 113.279,116.13 112.279,113.13 110.5,110.5C 110.803,108.886 111.47,107.552 112.5,106.5C 113.404,105.791 113.737,104.791 113.5,103.5C 114.198,101.295 115.532,99.4615 117.5,98C 115.35,95.9587 114.35,93.4587 114.5,90.5C 117.5,90.5 120.5,90.5 123.5,90.5 Z"/></g>
<g><path style="opacity:1" fill="#a90919" d="M 121.5,96.5 C 127.288,95.2359 131.621,97.0692 134.5,102C 132.296,104.607 129.629,105.107 126.5,103.5C 125.833,104.167 125.167,104.833 124.5,105.5C 123.786,108.027 123.12,110.527 122.5,113C 119.854,113.497 117.187,113.664 114.5,113.5C 115.051,110.193 115.384,106.86 115.5,103.5C 116.873,103.657 118.207,103.49 119.5,103C 120.978,100.943 122.978,99.6098 125.5,99C 123.563,98.8784 122.23,98.045 121.5,96.5 Z"/></g>
<g><path style="opacity:1" fill="#641b1e" d="M 159.5,98.5 C 160.622,100.288 160.789,102.288 160,104.5C 156.804,107.89 154.971,111.89 154.5,116.5C 153.047,122.864 151.38,129.197 149.5,135.5C 146.787,138.093 144.787,141.093 143.5,144.5C 145.63,139.766 146.963,134.766 147.5,129.5C 149.749,124.503 151.083,119.17 151.5,113.5C 151.98,110.922 152.98,108.588 154.5,106.5C 156.104,104.419 157.771,101.753 159.5,98.5 Z"/></g>
<g><path style="opacity:1" fill="#8c272f" d="M 60.5,90.5 C 60.5792,91.9305 60.2458,93.2638 59.5,94.5C 60.325,95.3857 61.325,95.719 62.5,95.5C 61.075,96.922 60.075,98.5887 59.5,100.5C 58.3263,101.514 57.6596,102.847 57.5,104.5C 57.1001,111.228 58.7668,117.561 62.5,123.5C 64.3602,129.553 67.0268,135.22 70.5,140.5C 71.1667,141.833 71.8333,143.167 72.5,144.5C 72.5,145.5 72.5,146.5 72.5,147.5C 68.3877,140.917 64.0543,134.584 59.5,128.5C 56.0461,121.14 53.3794,113.473 51.5,105.5C 53.2839,99.7281 56.2839,94.7281 60.5,90.5 Z"/></g>
<g><path style="opacity:1" fill="#6e101e" d="M 112.5,106.5 C 111.47,107.552 110.803,108.886 110.5,110.5C 112.279,113.13 113.279,116.13 113.5,119.5C 118.5,119.5 123.5,119.5 128.5,119.5C 129.688,120.684 130.855,120.684 132,119.5C 132.907,121.609 134.407,122.942 136.5,123.5C 133.913,124.816 130.913,125.483 127.5,125.5C 121.815,125.291 116.482,124.291 111.5,122.5C 112.198,125.841 114.198,127.841 117.5,128.5C 114.833,128.5 112.167,128.5 109.5,128.5C 109.423,127.25 108.756,126.417 107.5,126C 109.107,124.951 109.773,123.451 109.5,121.5C 113.5,120.833 113.5,120.167 109.5,119.5C 103.468,117.76 101.468,114.093 103.5,108.5C 106.5,107.833 109.5,107.167 112.5,106.5 Z"/></g>
<g><path style="opacity:1" fill="#763c4c" d="M 80.5,104.5 C 82.8333,104.5 85.1667,104.5 87.5,104.5C 87.0254,107.082 87.6921,109.082 89.5,110.5C 90.817,114.721 91.817,119.054 92.5,123.5C 92.7472,124.713 93.4138,125.38 94.5,125.5C 92.7706,126.236 91.7706,127.57 91.5,129.5C 90.5041,129.414 89.6708,129.748 89,130.5C 87.8289,129.107 86.3289,128.273 84.5,128C 87.9926,126.912 88.1592,125.745 85,124.5C 84.7882,121.748 83.9548,119.248 82.5,117C 82.6448,116.228 82.9781,115.561 83.5,115C 80.3283,113.501 79.6617,114.667 81.5,118.5C 81.1543,119.696 80.6543,119.696 80,118.5C 78.9319,115.129 77.7653,111.796 76.5,108.5C 76.8333,108.167 77.1667,107.833 77.5,107.5C 78.1867,109.274 79.0201,110.941 80,112.5C 80.4974,109.854 80.6641,107.187 80.5,104.5 Z"/></g>
<g><path style="opacity:1" fill="#bcacb7" d="M 57.5,104.5 C 59.261,110.45 61.261,116.45 63.5,122.5C 63.3764,123.107 63.0431,123.44 62.5,123.5C 58.7668,117.561 57.1001,111.228 57.5,104.5 Z"/></g>
<g><path style="opacity:1" fill="#4d0a14" d="M 103.5,108.5 C 101.468,114.093 103.468,117.76 109.5,119.5C 106.856,119.84 104.523,119.173 102.5,117.5C 102.302,120.785 100.635,122.452 97.5,122.5C 97.7373,121.209 97.404,120.209 96.5,119.5C 95.701,116.57 95.3677,113.57 95.5,110.5C 97.5824,110.472 99.4157,111.139 101,112.5C 101.122,110.563 101.955,109.23 103.5,108.5 Z"/></g>
<g><path style="opacity:1" fill="#be2136" d="M 139.5,123.5 C 138.5,123.5 137.5,123.5 136.5,123.5C 134.407,122.942 132.907,121.609 132,119.5C 130.855,120.684 129.688,120.684 128.5,119.5C 128.448,117.097 128.781,114.764 129.5,112.5C 130.482,111.859 131.482,111.193 132.5,110.5C 139.7,112.193 142.034,116.526 139.5,123.5 Z"/></g>
<g><path style="opacity:1" fill="#885a5f" d="M 147.5,104.5 C 148.233,108.195 148.566,111.862 148.5,115.5C 148.101,120.861 146.601,125.861 144,130.5C 143.517,129.552 143.351,128.552 143.5,127.5C 144.038,125.883 144.371,124.216 144.5,122.5C 144.833,121.167 145.167,119.833 145.5,118.5C 146.801,114.057 147.468,109.391 147.5,104.5 Z"/></g>
<g><path style="opacity:1" fill="#6c4151" d="M 67.5,125.5 C 65.5947,121.784 64.2613,117.784 63.5,113.5C 63.5,112.167 63.5,110.833 63.5,109.5C 64.8221,109.33 65.9887,109.663 67,110.5C 67.9058,114.884 69.4058,119.051 71.5,123C 71.3893,124.722 70.8893,124.888 70,123.5C 69.5161,125.178 68.6828,125.844 67.5,125.5 Z"/></g>
<g><path style="opacity:1" fill="#62303d" d="M 88.5,99.5 C 88.56,100.043 88.8933,100.376 89.5,100.5C 90.3857,99.675 90.719,98.675 90.5,97.5C 91.5983,98.6009 91.765,99.9343 91,101.5C 87.2361,103.025 85.4028,101.692 85.5,97.5C 83.8561,97.2865 82.3561,97.6198 81,98.5C 80.5045,100.473 80.3379,102.473 80.5,104.5C 80.6641,107.187 80.4974,109.854 80,112.5C 79.0201,110.941 78.1867,109.274 77.5,107.5C 77.1667,107.833 76.8333,108.167 76.5,108.5C 77.7653,111.796 78.9319,115.129 80,118.5C 80.6543,119.696 81.1543,119.696 81.5,118.5C 79.6617,114.667 80.3283,113.501 83.5,115C 82.9781,115.561 82.6448,116.228 82.5,117C 83.9548,119.248 84.7882,121.748 85,124.5C 88.1592,125.745 87.9926,126.912 84.5,128C 86.3289,128.273 87.8289,129.107 89,130.5C 89.6708,129.748 90.5041,129.414 91.5,129.5C 91.5,130.833 91.5,132.167 91.5,133.5C 87.8333,133.5 84.1667,133.5 80.5,133.5C 77.1869,132.955 73.8536,132.455 70.5,132C 69.086,130.007 68.086,127.84 67.5,125.5C 68.6828,125.844 69.5161,125.178 70,123.5C 70.8893,124.888 71.3893,124.722 71.5,123C 69.4058,119.051 67.9058,114.884 67,110.5C 65.9887,109.663 64.8221,109.33 63.5,109.5C 63.5,110.833 63.5,112.167 63.5,113.5C 61.4306,110.398 61.0973,107.064 62.5,103.5C 63.4431,100.891 65.1097,98.8908 67.5,97.5C 74.0433,93.9764 81.0433,92.8097 88.5,94C 87.8333,94.3333 87.1667,94.6667 86.5,95C 87.0989,96.6225 87.7656,98.1225 88.5,99.5 Z"/></g>
<g><path style="opacity:1" fill="#9b7c91" d="M 71.5,107.5 C 72.1174,107.611 72.6174,107.944 73,108.5C 73.7396,111.176 74.0729,113.842 74,116.5C 71.8951,113.893 71.0617,110.893 71.5,107.5 Z"/></g>
<g><path style="opacity:1" fill="#a86c74" d="M 151.5,113.5 C 151.083,119.17 149.749,124.503 147.5,129.5C 148.232,123.906 149.565,118.573 151.5,113.5 Z"/></g>
<g><path style="opacity:1" fill="#501c2a" d="M 109.5,119.5 C 113.5,120.167 113.5,120.833 109.5,121.5C 109.773,123.451 109.107,124.951 107.5,126C 108.756,126.417 109.423,127.25 109.5,128.5C 106.482,128.335 103.482,128.502 100.5,129C 101.706,130.018 101.373,130.518 99.5,130.5C 96.8853,129.731 94.2186,129.397 91.5,129.5C 91.7706,127.57 92.7706,126.236 94.5,125.5C 96.0808,123.858 96.7475,121.858 96.5,119.5C 97.404,120.209 97.7373,121.209 97.5,122.5C 100.635,122.452 102.302,120.785 102.5,117.5C 104.523,119.173 106.856,119.84 109.5,119.5 Z"/></g>
<g><path style="opacity:1" fill="#89858e" d="M 61.5,99.5 C 61.2322,101.099 61.5655,102.432 62.5,103.5C 61.0973,107.064 61.4306,110.398 63.5,113.5C 64.2613,117.784 65.5947,121.784 67.5,125.5C 68.086,127.84 69.086,130.007 70.5,132C 73.8536,132.455 77.1869,132.955 80.5,133.5C 80.5,133.833 80.5,134.167 80.5,134.5C 77.4752,134.123 74.4752,133.956 71.5,134C 74.5317,137.684 74.1984,139.85 70.5,140.5C 67.0268,135.22 64.3602,129.553 62.5,123.5C 63.0431,123.44 63.3764,123.107 63.5,122.5C 61.261,116.45 59.261,110.45 57.5,104.5C 57.6596,102.847 58.3263,101.514 59.5,100.5C 60.1667,100.167 60.8333,99.8333 61.5,99.5 Z"/></g>
<g><path style="opacity:1" fill="#7b0a16" d="M 136.5,123.5 C 137.5,123.5 138.5,123.5 139.5,123.5C 139.369,124.239 139.536,124.906 140,125.5C 140.333,124.5 140.667,123.5 141,122.5C 142.092,124.931 143.259,124.931 144.5,122.5C 144.371,124.216 144.038,125.883 143.5,127.5C 142.833,127.5 142.5,127.833 142.5,128.5C 138.979,128.952 135.646,129.952 132.5,131.5C 128.217,132.492 123.884,132.826 119.5,132.5C 116.187,131.955 112.854,131.455 109.5,131C 112.167,130.667 114.833,130.333 117.5,130C 118.738,129.31 118.738,128.81 117.5,128.5C 114.198,127.841 112.198,125.841 111.5,122.5C 116.482,124.291 121.815,125.291 127.5,125.5C 130.913,125.483 133.913,124.816 136.5,123.5 Z"/></g>
<g><path style="opacity:1" fill="#613940" d="M 151.5,113.5 C 149.565,118.573 148.232,123.906 147.5,129.5C 146.963,134.766 145.63,139.766 143.5,144.5C 142.272,147.746 140.606,150.746 138.5,153.5C 138.663,151.143 138.497,148.81 138,146.5C 137.617,147.056 137.117,147.389 136.5,147.5C 137.728,142.818 139.728,138.484 142.5,134.5C 140.955,133.548 139.288,133.215 137.5,133.5C 138.919,132.549 140.585,132.216 142.5,132.5C 142.5,131.167 142.5,129.833 142.5,128.5C 142.5,127.833 142.833,127.5 143.5,127.5C 143.351,128.552 143.517,129.552 144,130.5C 146.601,125.861 148.101,120.861 148.5,115.5C 149.224,112.917 150.057,110.251 151,107.5C 151.495,109.473 151.662,111.473 151.5,113.5 Z"/></g>
<g><path style="opacity:1" fill="#742638" d="M 109.5,128.5 C 112.167,128.5 114.833,128.5 117.5,128.5C 118.738,128.81 118.738,129.31 117.5,130C 114.833,130.333 112.167,130.667 109.5,131C 112.854,131.455 116.187,131.955 119.5,132.5C 119.5,133.167 119.5,133.833 119.5,134.5C 112.833,134.5 106.167,134.5 99.5,134.5C 96.6146,134.806 93.9479,134.473 91.5,133.5C 91.5,132.167 91.5,130.833 91.5,129.5C 94.2186,129.397 96.8853,129.731 99.5,130.5C 101.373,130.518 101.706,130.018 100.5,129C 103.482,128.502 106.482,128.335 109.5,128.5 Z"/></g>
<g><path style="opacity:1" fill="#4d0f19" d="M 142.5,128.5 C 142.5,129.833 142.5,131.167 142.5,132.5C 140.585,132.216 138.919,132.549 137.5,133.5C 136.081,134.451 134.415,134.784 132.5,134.5C 128.5,134.5 124.5,134.5 120.5,134.5C 120.167,134.5 119.833,134.5 119.5,134.5C 119.5,133.833 119.5,133.167 119.5,132.5C 123.884,132.826 128.217,132.492 132.5,131.5C 135.646,129.952 138.979,128.952 142.5,128.5 Z"/></g>
<g><path style="opacity:1" fill="#523241" d="M 120.5,135.5 C 120.5,135.167 120.5,134.833 120.5,134.5C 124.5,134.5 128.5,134.5 132.5,134.5C 131.866,135.947 130.699,136.613 129,136.5C 127.467,136.227 125.967,135.894 124.5,135.5C 123.167,135.5 121.833,135.5 120.5,135.5 Z"/></g>
<g><path style="opacity:1" fill="#59404e" d="M 126.5,144.5 C 126.824,141.32 125.49,140.153 122.5,141C 121.464,142.776 121.464,144.609 122.5,146.5C 121.883,146.389 121.383,146.056 121,145.5C 120.505,143.527 120.338,141.527 120.5,139.5C 122.167,139.5 123.833,139.5 125.5,139.5C 127.379,139.607 127.712,139.107 126.5,138C 128.473,137.505 130.473,137.338 132.5,137.5C 132.286,139.144 132.62,140.644 133.5,142C 130.823,142.168 128.49,143.001 126.5,144.5 Z"/></g>
<g><path style="opacity:1" fill="#43485b" d="M 80.5,134.5 C 80.8422,137.355 82.5088,138.855 85.5,139C 81.4263,141.994 82.093,143.661 87.5,144C 87.1667,144.333 86.8333,144.667 86.5,145C 88.7832,147.091 90.4499,149.591 91.5,152.5C 87.4356,153.209 83.4356,153.209 79.5,152.5C 77.1667,149.833 74.8333,147.167 72.5,144.5C 71.8333,143.167 71.1667,141.833 70.5,140.5C 74.1984,139.85 74.5317,137.684 71.5,134C 74.4752,133.956 77.4752,134.123 80.5,134.5 Z"/></g>
<g><path style="opacity:1" fill="#a5b4cb" d="M 99.5,135.5 C 100.483,139.298 100.817,143.298 100.5,147.5C 98.3875,146.56 96.3875,145.394 94.5,144C 96.1066,142.951 96.7733,141.451 96.5,139.5C 95.1266,139.657 93.7932,139.49 92.5,139C 94.0425,136.298 96.3759,135.132 99.5,135.5 Z"/></g>
<g><path style="opacity:1" fill="#923931" d="M 126.5,144.5 C 125.817,146.176 124.483,146.843 122.5,146.5C 121.464,144.609 121.464,142.776 122.5,141C 125.49,140.153 126.824,141.32 126.5,144.5 Z"/></g>
<g><path style="opacity:1" fill="#6f7d94" d="M 80.5,133.5 C 84.1667,133.5 87.8333,133.5 91.5,133.5C 93.9479,134.473 96.6146,134.806 99.5,134.5C 99.5,134.833 99.5,135.167 99.5,135.5C 96.3759,135.132 94.0425,136.298 92.5,139C 93.7932,139.49 95.1266,139.657 96.5,139.5C 96.7733,141.451 96.1066,142.951 94.5,144C 96.3875,145.394 98.3875,146.56 100.5,147.5C 100.611,148.117 100.944,148.617 101.5,149C 100.167,149 98.8333,149 97.5,149C 98.2598,150.441 98.9264,151.941 99.5,153.5C 100.274,154.711 101.107,154.711 102,153.5C 102.483,154.448 102.649,155.448 102.5,156.5C 100.5,156.5 98.5,156.5 96.5,156.5C 94.8333,155.167 93.1667,153.833 91.5,152.5C 90.4499,149.591 88.7832,147.091 86.5,145C 86.8333,144.667 87.1667,144.333 87.5,144C 82.093,143.661 81.4263,141.994 85.5,139C 82.5088,138.855 80.8422,137.355 80.5,134.5C 80.5,134.167 80.5,133.833 80.5,133.5 Z"/></g>
<g><path style="opacity:1" fill="#696b83" d="M 99.5,135.5 C 99.5,135.167 99.5,134.833 99.5,134.5C 106.167,134.5 112.833,134.5 119.5,134.5C 119.833,134.5 120.167,134.5 120.5,134.5C 120.5,134.833 120.5,135.167 120.5,135.5C 119.5,135.5 118.5,135.5 117.5,135.5C 117.5,137.167 117.5,138.833 117.5,140.5C 116.839,139.282 116.172,137.949 115.5,136.5C 115.077,140.614 113.744,144.28 111.5,147.5C 111.833,144.833 112.167,142.167 112.5,139.5C 110.473,139.662 108.473,139.495 106.5,139C 107.833,138.667 109.167,138.333 110.5,138C 107.648,137.731 104.982,136.897 102.5,135.5C 101.97,137.732 101.637,139.898 101.5,142C 101.862,143.225 102.362,144.391 103,145.5C 104.388,144.446 105.888,144.28 107.5,145C 106.833,145.333 106.167,145.667 105.5,146C 106.337,147.011 106.67,148.178 106.5,149.5C 107.833,149.5 109.167,149.5 110.5,149.5C 111.067,151.03 111.733,152.53 112.5,154C 110.19,154.497 107.857,154.663 105.5,154.5C 105.72,151.6 105.054,148.933 103.5,146.5C 102.583,147.127 101.583,147.461 100.5,147.5C 100.817,143.298 100.483,139.298 99.5,135.5 Z"/></g>
<g><path style="opacity:1" fill="#a7aabf" d="M 120.5,135.5 C 121.833,135.5 123.167,135.5 124.5,135.5C 124.433,136.959 124.766,138.292 125.5,139.5C 123.833,139.5 122.167,139.5 120.5,139.5C 120.338,141.527 120.505,143.527 121,145.5C 121.383,146.056 121.883,146.389 122.5,146.5C 122.389,147.117 122.056,147.617 121.5,148C 125.203,148.579 128.869,148.412 132.5,147.5C 132.5,148.5 132.5,149.5 132.5,150.5C 127.447,149.951 122.447,149.285 117.5,148.5C 117.5,145.833 117.5,143.167 117.5,140.5C 117.5,138.833 117.5,137.167 117.5,135.5C 118.5,135.5 119.5,135.5 120.5,135.5 Z"/></g>
<g><path style="opacity:1" fill="#7c778a" d="M 137.5,133.5 C 139.288,133.215 140.955,133.548 142.5,134.5C 139.728,138.484 137.728,142.818 136.5,147.5C 135.89,148.391 135.557,149.391 135.5,150.5C 133.844,151.146 132.177,151.813 130.5,152.5C 127.194,151.837 123.861,151.337 120.5,151C 118.881,150.764 117.881,149.931 117.5,148.5C 122.447,149.285 127.447,149.951 132.5,150.5C 132.5,149.5 132.5,148.5 132.5,147.5C 128.869,148.412 125.203,148.579 121.5,148C 122.056,147.617 122.389,147.117 122.5,146.5C 124.483,146.843 125.817,146.176 126.5,144.5C 128.49,143.001 130.823,142.168 133.5,142C 132.62,140.644 132.286,139.144 132.5,137.5C 130.473,137.338 128.473,137.505 126.5,138C 127.712,139.107 127.379,139.607 125.5,139.5C 124.766,138.292 124.433,136.959 124.5,135.5C 125.967,135.894 127.467,136.227 129,136.5C 130.699,136.613 131.866,135.947 132.5,134.5C 134.415,134.784 136.081,134.451 137.5,133.5 Z"/></g>
<g><path style="opacity:1" fill="#782835" d="M 59.5,128.5 C 64.0543,134.584 68.3877,140.917 72.5,147.5C 73.8333,150.167 75.1667,152.833 76.5,155.5C 70.6686,154.446 65.0019,152.779 59.5,150.5C 60.1561,143.204 60.1561,135.87 59.5,128.5 Z"/></g>
<g><path style="opacity:1" fill="#9498b1" d="M 111.5,147.5 C 111.672,148.492 111.338,149.158 110.5,149.5C 109.167,149.5 107.833,149.5 106.5,149.5C 106.67,148.178 106.337,147.011 105.5,146C 106.167,145.667 106.833,145.333 107.5,145C 105.888,144.28 104.388,144.446 103,145.5C 102.362,144.391 101.862,143.225 101.5,142C 101.637,139.898 101.97,137.732 102.5,135.5C 104.982,136.897 107.648,137.731 110.5,138C 109.167,138.333 107.833,138.667 106.5,139C 108.473,139.495 110.473,139.662 112.5,139.5C 112.167,142.167 111.833,144.833 111.5,147.5 Z"/></g>
<g><path style="opacity:1" fill="#4a495e" d="M 117.5,140.5 C 117.5,143.167 117.5,145.833 117.5,148.5C 117.881,149.931 118.881,150.764 120.5,151C 123.861,151.337 127.194,151.837 130.5,152.5C 132.177,151.813 133.844,151.146 135.5,150.5C 134.088,153.62 132.088,156.286 129.5,158.5C 127.409,157.135 125.076,156.468 122.5,156.5C 123.953,155.175 123.619,154.342 121.5,154C 119.167,153.333 116.833,153.333 114.5,154C 117.544,154.359 117.878,155.026 115.5,156C 116.337,157.011 116.67,158.178 116.5,159.5C 118.5,159.5 120.5,159.5 122.5,159.5C 122.728,160.972 119.061,161.306 111.5,160.5C 106.395,159.879 101.395,158.879 96.5,157.5C 96.5,157.167 96.5,156.833 96.5,156.5C 98.5,156.5 100.5,156.5 102.5,156.5C 102.649,155.448 102.483,154.448 102,153.5C 101.107,154.711 100.274,154.711 99.5,153.5C 98.9264,151.941 98.2598,150.441 97.5,149C 98.8333,149 100.167,149 101.5,149C 100.944,148.617 100.611,148.117 100.5,147.5C 101.583,147.461 102.583,147.127 103.5,146.5C 105.054,148.933 105.72,151.6 105.5,154.5C 107.857,154.663 110.19,154.497 112.5,154C 111.733,152.53 111.067,151.03 110.5,149.5C 111.338,149.158 111.672,148.492 111.5,147.5C 113.744,144.28 115.077,140.614 115.5,136.5C 116.172,137.949 116.839,139.282 117.5,140.5 Z"/></g>
<g><path style="opacity:1" fill="#828299" d="M 122.5,156.5 C 121.375,157.348 121.375,158.348 122.5,159.5C 120.5,159.5 118.5,159.5 116.5,159.5C 116.67,158.178 116.337,157.011 115.5,156C 117.878,155.026 117.544,154.359 114.5,154C 116.833,153.333 119.167,153.333 121.5,154C 123.619,154.342 123.953,155.175 122.5,156.5 Z"/></g>
<g><path style="opacity:1" fill="#271922" d="M 138.5,153.5 C 137.017,155.094 135.517,156.76 134,158.5C 132.701,158.034 131.201,158.034 129.5,158.5C 132.088,156.286 134.088,153.62 135.5,150.5C 135.557,149.391 135.89,148.391 136.5,147.5C 137.117,147.389 137.617,147.056 138,146.5C 138.497,148.81 138.663,151.143 138.5,153.5 Z"/></g>
<g><path style="opacity:1" fill="#756479" d="M 79.5,152.5 C 83.4356,153.209 87.4356,153.209 91.5,152.5C 93.1667,153.833 94.8333,155.167 96.5,156.5C 96.5,156.833 96.5,157.167 96.5,157.5C 95.209,157.263 94.209,157.596 93.5,158.5C 88.0829,158.122 83.4162,156.122 79.5,152.5 Z"/></g>
<g><path style="opacity:1" fill="#6a5061" d="M 138.5,153.5 C 137.569,157.429 135.236,160.095 131.5,161.5C 130.833,161.5 130.167,161.5 129.5,161.5C 123.31,161.823 117.31,161.49 111.5,160.5C 119.061,161.306 122.728,160.972 122.5,159.5C 121.375,158.348 121.375,157.348 122.5,156.5C 125.076,156.468 127.409,157.135 129.5,158.5C 131.201,158.034 132.701,158.034 134,158.5C 135.517,156.76 137.017,155.094 138.5,153.5 Z"/></g>
<g><path style="opacity:1" fill="#7a5558" d="M 83.5,159.5 C 84.8333,159.5 86.1667,159.5 87.5,159.5C 88.5,160.167 89.5,160.833 90.5,161.5C 87.8478,161.59 85.5145,160.924 83.5,159.5 Z"/></g>
<g><path style="opacity:1" fill="#5e151e" d="M 72.5,144.5 C 74.8333,147.167 77.1667,149.833 79.5,152.5C 83.4162,156.122 88.0829,158.122 93.5,158.5C 98.8827,159.345 104.216,160.512 109.5,162C 116.346,162.821 123.013,162.654 129.5,161.5C 130.167,161.5 130.833,161.5 131.5,161.5C 130.942,162.79 129.942,163.623 128.5,164C 125.833,164.167 123.167,164.333 120.5,164.5C 109.327,163.73 98.3266,162.064 87.5,159.5C 86.1667,159.5 84.8333,159.5 83.5,159.5C 81.0313,158.431 78.6979,157.098 76.5,155.5C 75.1667,152.833 73.8333,150.167 72.5,147.5C 72.5,146.5 72.5,145.5 72.5,144.5 Z"/></g>
<g><path style="opacity:1" fill="#a1788d" d="M 93.5,158.5 C 94.209,157.596 95.209,157.263 96.5,157.5C 101.395,158.879 106.395,159.879 111.5,160.5C 117.31,161.49 123.31,161.823 129.5,161.5C 123.013,162.654 116.346,162.821 109.5,162C 104.216,160.512 98.8827,159.345 93.5,158.5 Z"/></g>
<g><path style="opacity:1" fill="#3a161a" d="M 149.5,135.5 C 146.898,143.374 143.732,151.04 140,158.5C 137.795,161.04 135.295,163.207 132.5,165C 125.247,166.557 117.914,166.89 110.5,166C 103.808,164.562 97.1413,163.062 90.5,161.5C 89.5,160.833 88.5,160.167 87.5,159.5C 98.3266,162.064 109.327,163.73 120.5,164.5C 123.167,164.333 125.833,164.167 128.5,164C 129.942,163.623 130.942,162.79 131.5,161.5C 135.236,160.095 137.569,157.429 138.5,153.5C 140.606,150.746 142.272,147.746 143.5,144.5C 144.787,141.093 146.787,138.093 149.5,135.5 Z"/></g>
</svg>
