<svg width="258" height="60" viewBox="0 0 258 60" fill="none" xmlns="http://www.w3.org/2000/svg">
<path d="M190.064 33.6875C187.683 33.6875 185.616 34.9977 184.493 36.9225C183.937 37.8769 183.594 38.9768 183.594 40.1575C183.594 43.7225 186.496 46.6276 190.064 46.6276C193.632 46.6276 196.534 43.7225 196.534 40.1575C196.534 38.9768 196.194 37.8769 195.634 36.9225C194.512 34.9977 192.448 33.6875 190.064 33.6875Z" fill="#101921"/>
<path d="M235.353 33.6875C232.972 33.6875 230.905 34.9977 229.782 36.9225C229.226 37.8769 228.883 38.9768 228.883 40.1575C228.883 43.7225 231.785 46.6276 235.353 46.6276C238.921 46.6276 241.823 43.7225 241.823 40.1575C241.823 38.9768 241.483 37.8769 240.924 36.9225C239.801 34.9977 237.737 33.6875 235.353 33.6875Z" fill="#101921"/>
<path d="M254.765 27.2155V23.9805L235.355 18.4324L212.71 4.57031H177.124V7.80534H196.534V11.0404H160.949V14.2754H199.77V17.5104H167.419V20.7454H183.594V23.9805H177.124V27.2155H164.184V30.4505H180.359V33.6855H177.124V36.9206H167.419V40.1556H180.359C180.359 39.0168 180.592 37.9363 180.955 36.9206C182.294 33.1615 185.846 30.4505 190.064 30.4505C194.286 30.4505 197.835 33.1615 199.174 36.9206C199.533 37.9363 199.77 39.0168 199.77 40.1556H225.65C225.65 39.0168 225.883 37.9363 226.245 36.9206C227.584 33.1615 231.136 30.4505 235.355 30.4505C239.576 30.4505 243.125 33.1615 244.465 36.9206C244.824 37.9363 245.06 39.0168 245.06 40.1556H254.765V36.9206H258V27.2155H254.765Z" fill="#101921"/>
<path d="M8.02018 12.2441V20.0504H15.5057C17.9652 20.0504 19.4088 18.6068 19.4088 16.1473C19.4088 13.6878 17.9652 12.2441 15.5057 12.2441H8.02018ZM20.1574 25.3438C21.6545 27.3755 23.1516 29.4073 24.7022 31.3856C26.1993 33.3639 27.6964 35.3957 29.1935 37.4275H19.4088C17.484 34.861 15.6126 32.2946 13.7412 29.7281C11.8699 27.2151 9.94502 24.6487 8.02018 22.0822V37.4275H0V4.70517H15.5057C21.601 4.70517 26.7874 9.35688 26.7874 15.5057C26.7874 19.8366 24.114 23.6328 20.1574 25.3438ZM52.1472 24.0605C51.9333 20.1574 50.1689 17.8583 46.1053 17.8583C44.9825 17.8583 44.0201 18.0187 43.2181 18.3395C40.7586 19.4623 39.8496 21.5476 39.8496 24.114C39.8496 24.9695 39.9565 25.7715 40.2239 26.4666C41.0259 29.2469 43.4319 30.2628 46.1053 30.2628C50.1689 30.2628 52.1472 28.0706 52.1472 24.0605ZM62.3061 37.4275H54.2859C53.7512 36.0908 53.27 34.7541 52.9492 33.3639C51.1313 36.3581 48.351 37.6948 44.929 37.6948C37.2831 37.6948 31.8294 31.2787 31.8294 23.9536C31.8294 15.5057 38.1386 10.4262 46.1053 10.4262C54.6067 10.4262 59.9535 15.88 60.1674 24.0605C60.2209 24.7556 60.2209 25.5576 60.2209 26.5201C60.2209 30.2628 60.809 34.0056 62.3061 37.4275ZM82.2122 10.6936H90.2324V13.367C90.2324 17.4305 88.8422 21.3337 85.848 24.114L92.9058 37.4275H83.0142L74.7267 21.601V37.4275H66.7065V0H74.7267V20.1574H75.9565C80.2873 20.1574 82.2122 17.2701 82.2122 13.3135V10.6936ZM123.773 24.0605V37.4275H115.753V24.0605C115.753 20.3713 114.042 17.8583 110.138 17.8583C106.289 17.8583 104.524 20.4247 104.524 24.0605V37.4275H96.5042V24.0605C96.5042 15.8265 102.172 10.4262 110.138 10.4262C118.426 10.4262 123.773 16.0938 123.773 24.0605ZM148.651 24.0605C148.437 20.1574 146.673 17.8583 142.609 17.8583C141.487 17.8583 140.524 18.0187 139.722 18.3395C137.263 19.4623 136.354 21.5476 136.354 24.114C136.354 24.9695 136.461 25.7715 136.728 26.4666C137.53 29.2469 139.936 30.2628 142.609 30.2628C146.673 30.2628 148.651 28.0706 148.651 24.0605ZM158.81 37.4275H150.79C150.255 36.0908 149.774 34.7541 149.453 33.3639C147.635 36.3581 144.855 37.6948 141.433 37.6948C133.787 37.6948 128.334 31.2787 128.334 23.9536C128.334 15.5057 134.643 10.4262 142.609 10.4262C151.111 10.4262 156.458 15.88 156.672 24.0605C156.725 24.7556 156.725 25.5576 156.725 26.5201C156.725 30.2628 157.313 34.0056 158.81 37.4275Z" fill="#101921"/>
<path d="M19 59.1573V48.0904H24.2441C26.3056 48.0904 28.0597 49.6456 28.0597 51.7251C28.0597 53.8228 26.2514 55.3599 24.2441 55.3599H21.7125V59.1573H19ZM24.2441 50.604H21.7125V52.8463H24.2441C24.877 52.8463 25.3472 52.358 25.3472 51.7251C25.3472 51.0922 24.877 50.604 24.2441 50.604ZM39.5063 56.915H35.4376L34.642 59.1573H31.6944L36.1248 48.0904H38.8373L43.2676 59.1573H40.302L39.5063 56.915ZM36.3237 54.4014H38.6203L37.481 51.1826L36.3237 54.4014ZM51.1157 50.6401V53.2803H53.6474C54.4792 53.2803 54.9674 52.792 54.9674 51.9602C54.9674 51.1284 54.4792 50.6401 53.6474 50.6401H51.1157ZM55.2206 55.0705C55.7269 55.7577 56.2333 56.4448 56.7577 57.1139C57.264 57.783 57.7703 58.4702 58.2767 59.1573H54.9674C54.3165 58.2893 53.6835 57.4213 53.0506 56.5533C52.4177 55.7034 51.7667 54.8354 51.1157 53.9675V59.1573H48.4033V48.0904H53.6474C55.7089 48.0904 57.4629 49.6637 57.4629 51.7432C57.4629 53.208 56.5588 54.4919 55.2206 55.0705ZM63.4485 48.0904H66.1609V53.2803L69.7233 48.0904H73.0868L69.217 53.6239L73.2315 59.1573H69.9042L66.1609 53.9494V59.1573H63.4485V48.0904ZM94.2622 56.6438V59.1573H86.0344V48.0904H88.7468V56.6438H94.2622ZM99.651 48.0904H102.363V59.1573H99.651V48.0904ZM108.439 48.0904H111.152V53.2803L114.714 48.0904H118.078L114.208 53.6239L118.222 59.1573H114.895L111.152 53.9494V59.1573H108.439V48.0904ZM123.014 48.0904H131.242V50.604H125.727V52.3761H130.157V54.8897H125.727V56.6438H131.242V59.1573H123.014V48.0904ZM151.676 56.915H147.608L146.812 59.1573H143.864L148.295 48.0904H151.007L155.438 59.1573H152.472L151.676 56.915ZM148.494 54.4014H150.79L149.651 51.1826L148.494 54.4014ZM168.584 59.1573V48.0904H173.828C175.89 48.0904 177.644 49.6456 177.644 51.7251C177.644 53.8228 175.835 55.3599 173.828 55.3599H171.297V59.1573H168.584ZM173.828 50.604H171.297V52.8463H173.828C174.461 52.8463 174.931 52.358 174.931 51.7251C174.931 51.0922 174.461 50.604 173.828 50.604ZM185.745 50.6401V53.2803H188.277C189.109 53.2803 189.597 52.792 189.597 51.9602C189.597 51.1284 189.109 50.6401 188.277 50.6401H185.745ZM189.85 55.0705C190.356 55.7577 190.863 56.4448 191.387 57.1139C191.893 57.783 192.4 58.4702 192.906 59.1573H189.597C188.946 58.2893 188.313 57.4213 187.68 56.5533C187.047 55.7034 186.396 54.8354 185.745 53.9675V59.1573H183.033V48.0904H188.277C190.338 48.0904 192.092 49.6637 192.092 51.7432C192.092 53.208 191.188 54.4919 189.85 55.0705ZM203.304 56.7342C205.275 56.7342 206.288 55.4684 206.288 53.6239C206.288 51.6709 205.203 50.5136 203.304 50.5136C201.315 50.5136 200.32 51.7794 200.32 53.6239C200.32 55.5407 201.423 56.7342 203.304 56.7342ZM203.304 59.2477C199.904 59.2477 197.608 56.9331 197.608 53.6239C197.608 50.2061 200.013 48 203.304 48C206.722 48 209 50.2966 209 53.6239C209 57.0597 206.613 59.2477 203.304 59.2477Z" fill="#01AC67"/>
</svg>
