<?xml version="1.0" encoding="utf-8"?>
<!-- Generator: Adobe Illustrator 26.5.1, SVG Export Plug-In . SVG Version: 6.00 Build 0)  -->
<svg version="1.1" id="Layer_1" xmlns="http://www.w3.org/2000/svg" xmlns:xlink="http://www.w3.org/1999/xlink" x="0px" y="0px"
	 viewBox="0 0 258 60" style="enable-background:new 0 0 258 60;" xml:space="preserve">
<style type="text/css">
	.st0{fill:#FFFFFF;stroke:#000000;stroke-miterlimit:10;}
</style>
<path class="st0" d="M190.1,33.7c-2.4,0-4.4,1.3-5.6,3.2c-0.6,1-0.9,2.1-0.9,3.2c0,3.6,2.9,6.5,6.5,6.5c3.6,0,6.5-2.9,6.5-6.5
	c0-1.2-0.3-2.3-0.9-3.2C194.5,35,192.4,33.7,190.1,33.7z"/>
<path class="st0" d="M235.4,33.7c-2.4,0-4.4,1.3-5.6,3.2c-0.6,1-0.9,2.1-0.9,3.2c0,3.6,2.9,6.5,6.5,6.5c3.6,0,6.5-2.9,6.5-6.5
	c0-1.2-0.3-2.3-0.9-3.2C239.8,35,237.7,33.7,235.4,33.7z"/>
<path class="st0" d="M254.8,27.2V24l-19.4-5.5L212.7,4.6h-35.6v3.2h19.4V11h-35.6v3.2h38.8v3.2h-32.4v3.2h16.2V24h-6.5v3.2h-12.9
	v3.2h16.2v3.2h-3.2v3.2h-9.7v3.2h12.9c0-1.1,0.2-2.2,0.6-3.2c1.3-3.8,4.9-6.5,9.1-6.5c4.2,0,7.8,2.7,9.1,6.5c0.4,1,0.6,2.1,0.6,3.2
	h25.9c0-1.1,0.2-2.2,0.6-3.2c1.3-3.8,4.9-6.5,9.1-6.5c4.2,0,7.8,2.7,9.1,6.5c0.4,1,0.6,2.1,0.6,3.2h9.7v-3.2h3.2v-9.7H254.8z"/>
<path class="st0" d="M8,12.2v7.8h7.5c2.5,0,3.9-1.4,3.9-3.9s-1.4-3.9-3.9-3.9H8z M20.2,25.3c1.5,2,3,4.1,4.5,6c1.5,2,3,4,4.5,6h-9.8
	c-1.9-2.6-3.8-5.1-5.7-7.7c-1.9-2.5-3.8-5.1-5.7-7.6v15.3H0V4.7h15.5c6.1,0,11.3,4.7,11.3,10.8C26.8,19.8,24.1,23.6,20.2,25.3z
	 M52.1,24.1c-0.2-3.9-2-6.2-6-6.2c-1.1,0-2.1,0.2-2.9,0.5c-2.5,1.1-3.4,3.2-3.4,5.8c0,0.9,0.1,1.7,0.4,2.4c0.8,2.8,3.2,3.8,5.9,3.8
	C50.2,30.3,52.1,28.1,52.1,24.1z M62.3,37.4h-8c-0.5-1.3-1-2.7-1.3-4.1c-1.8,3-4.6,4.3-8,4.3c-7.6,0-13.1-6.4-13.1-13.7
	c0-8.4,6.3-13.5,14.3-13.5c8.5,0,13.8,5.5,14.1,13.6c0.1,0.7,0.1,1.5,0.1,2.5C60.2,30.3,60.8,34,62.3,37.4z M82.2,10.7h8v2.7
	c0,4.1-1.4,8-4.4,10.7l7.1,13.3H83l-8.3-15.8v15.8h-8V0h8v20.2H76c4.3,0,6.3-2.9,6.3-6.8V10.7z M123.8,24.1v13.4h-8V24.1
	c0-3.7-1.7-6.2-5.6-6.2c-3.8,0-5.6,2.6-5.6,6.2v13.4h-8V24.1c0-8.2,5.7-13.6,13.6-13.6C118.4,10.4,123.8,16.1,123.8,24.1z
	 M148.7,24.1c-0.2-3.9-2-6.2-6-6.2c-1.1,0-2.1,0.2-2.9,0.5c-2.5,1.1-3.4,3.2-3.4,5.8c0,0.9,0.1,1.7,0.4,2.4c0.8,2.8,3.2,3.8,5.9,3.8
	C146.7,30.3,148.7,28.1,148.7,24.1z M158.8,37.4h-8c-0.5-1.3-1-2.7-1.3-4.1c-1.8,3-4.6,4.3-8,4.3c-7.6,0-13.1-6.4-13.1-13.7
	c0-8.4,6.3-13.5,14.3-13.5c8.5,0,13.8,5.5,14.1,13.6c0.1,0.7,0.1,1.5,0.1,2.5C156.7,30.3,157.3,34,158.8,37.4z"/>
</svg>
