<?xml version="1.0" encoding="utf-8"?>
<!-- Generator: Adobe Illustrator 25.4.1, SVG Export Plug-In . SVG Version: 6.00 Build 0)  -->
<svg width="174" height="60" fill="none"  version="1.1" id="Layer_1" xmlns="http://www.w3.org/2000/svg" xmlns:xlink="http://www.w3.org/1999/xlink" 	 viewBox="0 0 1290 311" style="enable-background:new 0 0 1290 311;" xml:space="preserve">
<style type="text/css">
	.st0{fill:#353535;}
	.st1{fill:#EC1E24;}
	.st2{fill:#FFFFFF;}
</style>
<g>
	<path class="st0" d="M114.53,75.34c6.39,0,11.69-1.88,15.9-5.64c4.28-3.77,6.9-8.1,7.84-12.99c0.95-4.9,0.01-9.23-2.8-12.99
		c-2.75-3.77-7.32-5.64-13.7-5.64c-6.39,0-11.86,2.02-16.41,6.07c-3.74,3.55-6.08,7.74-7.02,12.57c-0.93,4.83-0.22,9.02,2.15,12.57
		C103.46,73.32,108.13,75.34,114.53,75.34z M70.97,75.34c6.39,0,11.69-1.88,15.9-5.64c4.28-3.77,6.9-8.1,7.84-12.99
		c0.95-4.9,0.01-9.23-2.8-12.99c-2.75-3.77-7.32-5.64-13.7-5.64s-11.86,2.02-16.41,6.07c-3.74,3.55-6.08,7.74-7.02,12.57
		c-0.93,4.83-0.22,9.02,2.15,12.57C59.9,73.32,64.58,75.34,70.97,75.34z M164.58,238.18c-6.39,0-11.86,2.02-16.41,6.07
		c-3.74,3.55-6.08,7.74-7.01,12.57c-0.93,4.83-0.22,9.02,2.15,12.57c2.98,4.05,7.66,6.07,14.05,6.07c6.39,0,11.69-1.88,15.9-5.64
		c4.28-3.77,6.9-8.1,7.84-12.99c0.95-4.9,0.01-9.23-2.81-12.99C175.54,240.07,170.96,238.18,164.58,238.18z M210.26,238.18
		c-6.39,0-11.86,2.02-16.41,6.07c-3.74,3.55-6.08,7.74-7.01,12.57c-0.93,4.83-0.23,9.02,2.14,12.57c2.98,4.05,7.66,6.07,14.05,6.07
		c6.39,0,11.69-1.88,15.9-5.64c4.28-3.77,6.9-8.1,7.84-12.99c0.95-4.9,0.01-9.23-2.81-12.99
		C221.22,240.07,216.65,238.18,210.26,238.18z M377.98,75.34c6.39,0,11.69-1.88,15.9-5.64c4.28-3.77,6.9-8.1,7.84-12.99
		c0.95-4.9,0.01-9.23-2.8-12.99c-2.75-3.77-7.32-5.64-13.7-5.64c-6.39,0-11.86,2.02-16.41,6.07c-3.74,3.55-6.08,7.74-7.02,12.57
		c-0.93,4.83-0.22,9.02,2.15,12.57C366.91,73.32,371.59,75.34,377.98,75.34z M332.3,75.34c6.39,0,11.69-1.88,15.9-5.64
		c4.28-3.77,6.9-8.1,7.84-12.99c0.95-4.9,0.01-9.23-2.8-12.99c-2.75-3.77-7.32-5.64-13.7-5.64s-11.86,2.02-16.41,6.07
		c-3.74,3.55-6.08,7.74-7.02,12.57c-0.93,4.83-0.22,9.02,2.15,12.57C321.23,73.32,325.91,75.34,332.3,75.34z M490.22,238.18
		c-6.39,0-11.86,2.02-16.41,6.07c-3.74,3.55-6.08,7.74-7.01,12.57c-0.93,4.83-0.23,9.02,2.15,12.57c2.97,4.05,7.66,6.07,14.05,6.07
		c6.39,0,11.69-1.88,15.9-5.64c4.28-3.77,6.9-8.1,7.84-12.99c0.94-4.9,0.01-9.23-2.81-12.99
		C501.18,240.07,496.61,238.18,490.22,238.18z M444.54,238.18c-6.39,0-11.86,2.02-16.41,6.07c-3.74,3.55-6.08,7.74-7.01,12.57
		c-0.93,4.83-0.22,9.02,2.15,12.57c2.98,4.05,7.66,6.07,14.05,6.07c6.39,0,11.69-1.88,15.9-5.64c4.28-3.77,6.9-8.1,7.84-12.99
		c0.95-4.9,0.01-9.23-2.81-12.99C455.5,240.07,450.93,238.18,444.54,238.18z M675.63,115.85c-9.73-12.07-23.36-18.11-40.89-18.11
		c-17.53,0-33.51,6.04-47.92,18.11c-14.66,12.29-23.64,26.91-26.93,43.87c-3.04,15.7-3.19,25.41-0.45,29.18h-45.48
		c-7.15-0.06-12.03-2.77-14.61-8.1c-2.54-5.18-3.23-12.43-2.07-21.72l10.63-54.74h-36.84l-16.41,84.56h-54.73l5.71-29.39
		c3.27-16.82-0.05-31.38-9.95-43.66c-9.73-12.07-23.36-18.11-40.89-18.11c-17.53,0-33.51,6.04-47.92,18.11
		c-14.66,12.29-23.63,26.83-26.9,43.66c-3.08,15.84-3.23,25.63-0.49,29.39h-45.48c-7.15-0.06-12.03-2.77-14.61-8.1
		c-2.54-5.18-3.23-12.43-2.07-21.72l10.63-54.74h-36.84l-16.41,84.56h-36.77c-1.7,0-3.18-0.78-4.44-2.34
		c-1.15-1.42-1.49-3.3-1.03-5.64l17.19-88.6h-35.13l-1.7,8.74H90.25c-19.31,0-36.08,7.34-50.28,22.04
		c-10.29,10.59-16.63,22.02-19.02,34.29c-0.96,4.9-1.25,9.94-0.91,15.12c0.61,9.65,3.91,18.07,9.9,25.24
		c5.85,7.52,13.56,12.6,23.14,15.22c4.74,1.2,9.69,1.81,14.88,1.81c11.07,0,21.61-2.73,31.62-8.2c2.21,3.27,5.17,6.07,8.91,8.42
		c6.69,4.33,14.39,6.5,23.13,6.5h73.59l1.24-6.39c0.57,3.97,6.91,6.1,18.99,6.39h259.73l1.24-6.39c0.58,3.97,6.91,6.1,18.99,6.39
		h168.36l11.78-61.76C688.83,142.76,685.53,128.14,675.63,115.85z M101.77,158.02c-1.55,7.96-5.86,14.3-12.96,19.07
		c-4.58,3.13-9.28,4.69-14.11,4.69c-2.06,0-4.1-0.28-6.12-0.86c-7.98-2.06-12.22-7.46-12.73-16.18c-0.15-2.49-0.01-4.9,0.45-7.24
		c1.01-5.18,3.55-9.9,7.65-14.16c5.95-6.18,12.59-9.26,19.9-9.26h22.58L101.77,158.02z M368.97,159.51l-5.71,29.39h-26.41
		c-7.38,0-13-2.69-16.86-8.1c-4.16-5.61-5.41-12.71-3.74-21.3c1.6-8.24,5.66-15.22,12.17-20.98c6.17-5.47,12.85-8.2,20.01-8.2
		c7.24,0,12.82,2.69,16.74,8.1C369.33,144.18,370.6,151.21,368.97,159.51z M648.8,159.73l-5.66,29.18h-26.31
		c-7.46,0-13.08-2.69-16.86-8.1c-4.24-5.61-5.53-12.63-3.9-21.08c1.62-8.38,5.7-15.44,12.21-21.19c6.17-5.47,12.87-8.2,20.11-8.2
		c7.16,0,12.72,2.69,16.64,8.1C649.18,144.18,650.43,151.28,648.8,159.73z M636.28,78.85c6.46,0,12-2.06,16.64-6.18
		c3.74-3.55,6.08-7.74,7.02-12.57c0.91-4.69,0.2-8.91-2.12-12.67c-3.04-4.11-7.78-6.18-14.24-6.18c-6.74,0-12.2,1.95-16.36,5.86
		c-4,3.77-6.48,8.1-7.42,12.99c-0.98,5.04-0.23,9.23,2.25,12.57C624.79,76.8,629.54,78.85,636.28,78.85z M899.21,104.56
		l-16.37,84.34h-58.57l5.66-29.18c3.27-16.82,0.08-31.31-9.57-43.45c-9.96-12.35-23.7-18.53-41.24-18.53
		c-17.68,0-33.89,6.18-48.64,18.53c-14.35,12.15-23.17,26.63-26.42,43.45c-3.27,16.82,0.05,31.38,9.95,43.66
		c9.73,12.07,23.43,18.11,41.11,18.11h21.94c-1.43,0.42-5.26,2.02-11.47,4.79c-10.17,4.47-57.63,12.08-77.88,12.08l-6.32,32.59
		c30.1,0,86.34-10.78,104.2-21.57c15.15-8.94,24.94-18.25,29.37-27.9h98.5l22.69-116.93h-36.95V104.56z M793.3,159.73l-5.66,29.18
		h-26.19c-7.18,0-12.72-2.69-16.64-8.1c-4.35-5.75-5.72-12.78-4.11-21.08c1.62-8.38,5.73-15.48,12.34-21.3
		c6.02-5.39,12.6-8.1,19.78-8.1c7.02,0,12.5,2.69,16.42,8.1C793.57,144.25,794.93,151.35,793.3,159.73z"/>
	<path class="st1" d="M884.64,21.97l35.21-1.42L872.5,79.09l-37.09,1.42L884.64,21.97z"/>
	<path class="st1" d="M945.22,45.42l-25.98,32.63l-29.82,0.74l25.98-32.63L945.22,45.42z"/>
</g>
<g>
	<g>
		<path class="st1" d="M1270.6,192.12l0.4-87.05c0.1-20.03-10.52-38.59-27.86-48.7l-75.29-43.87c-17.33-10.1-38.74-10.2-56.16-0.25
			L1036,55.43c-17.42,9.95-28.22,28.41-28.29,48.44l-0.39,87.05c-0.09,20.03,10.52,38.59,27.85,48.69l75.29,43.87
			c17.33,10.1,38.74,10.2,56.16,0.25l75.68-43.18C1259.73,230.62,1270.51,212.15,1270.6,192.12z"/>
	</g>
	<g>
		<path class="st2" d="M1143.46,81.42l30.89-1.26l-41.55,51.32l-32.56,1.24L1143.46,81.42z"/>
		<path class="st2" d="M1200.19,102.94l-22.79,28.6l-26.19,0.64l22.81-28.59L1200.19,102.94z"/>
		<path class="st2" d="M1246.78,157.36c-0.46-4.49-1.05-8.74-3.21-12.75c-1.77-3.26-4.11-6.22-6.91-8.68
			c-5.68-5.01-13.12-7.85-20.7-7.88c-22.69-0.1-29.33,20.06-30.02,20.85l-92.37,1.57c-2.66-9.44-9.56-17.1-18.53-20.76
			c-0.7-0.3-1.45-0.56-2.21-0.81c-0.16-0.05-0.32-0.11-0.48-0.16c-0.84-0.26-1.71-0.48-2.62-0.67c-0.22-0.05-0.45-0.09-0.67-0.13
			c-0.78-0.15-1.57-0.28-2.41-0.37c-0.77-0.09-1.56-0.12-2.35-0.15c-0.32-0.01-0.62-0.06-0.95-0.06c-0.04,0-0.07,0.01-0.11,0.01
			c-0.06,0-0.11-0.01-0.17-0.01c-1.52,0-3.01,0.14-4.47,0.35c-0.11,0.02-0.22,0.03-0.33,0.05c-15.22,2.32-26.89,15.43-26.89,31.29
			c0,17.5,14.19,31.7,31.7,31.7c13.53,0,25.05-8.5,29.6-20.44c0.19-0.42,0.34-0.74,0.41-0.82l92.75,0.41
			c0.67,0.81,7.16,21.03,29.82,21.12c1.18,0.02,2.35-0.05,3.52-0.17c12.23-1.32,22.29-9.76,26.1-20.74
			C1246.65,166.15,1247.22,161.82,1246.78,157.36z"/>
		<circle class="st1" cx="1063.08" cy="159.07" r="15.92"/>
		<circle class="st1" cx="1216.36" cy="159.07" r="15.92"/>
	</g>
</g>
</svg>
